<?xml version="1.0" encoding="UTF-8" standalone="no"?>
<!DOCTYPE svg PUBLIC "-//W3C//DTD SVG 1.1//EN"
 "http://www.w3.org/Graphics/SVG/1.1/DTD/svg11.dtd">
<!-- Generated by graphviz version 2.38.0 (20140413.2041)
 -->
<!-- Title: tree Pages: 1 -->
<svg width="824pt" height="909pt"
 viewBox="0.00 0.00 823.81 909.00" xmlns="http://www.w3.org/2000/svg" xmlns:xlink="http://www.w3.org/1999/xlink">
<g id="graph0" class="graph" transform="scale(1 1) rotate(0) translate(4 905)">
<title>tree</title>
<polygon fill="white" stroke="none" points="-4,4 -4,-905 819.811,-905 819.811,4 -4,4"/>
<text text-anchor="middle" x="407.906" y="-885.8" font-family="Times,serif" font-size="14.00">Previous Run(s) 2015/08/27 18:20:07</text>
<!-- 156 -->
<g id="node1" class="node"><title>156</title>
<g id="a_node1"><a xlink:href="javascript:nodeClick('draw:frame',156)" xlink:title="draw:frame">
<polygon fill="palevioletred" stroke="green" points="611.36,-204.544 611.36,-219.456 588.032,-230 555.04,-230 531.712,-219.456 531.712,-204.544 555.04,-194 588.032,-194 611.36,-204.544"/>
<polygon fill="none" stroke="green" points="615.351,-201.96 615.351,-222.04 588.89,-234 554.182,-234 527.721,-222.04 527.721,-201.96 554.182,-190 588.89,-190 615.351,-201.96"/>
<text text-anchor="middle" x="571.536" y="-210.1" font-family="Bitstream Vera Sans" font-size="8.00">draw:frame</text>
</a>
</g>
</g>
<!-- 159 -->
<g id="node2" class="node"><title>159</title>
<g id="a_node2"><a xlink:href="javascript:nodeClick('draw:image',159)" xlink:title="draw:image">
<polygon fill="palevioletred" stroke="green" points="506.077,-109.544 506.077,-124.456 482.329,-135 448.743,-135 424.995,-124.456 424.995,-109.544 448.743,-99 482.329,-99 506.077,-109.544"/>
<polygon fill="none" stroke="green" points="510.079,-106.944 510.079,-127.056 483.178,-139 447.894,-139 420.993,-127.056 420.993,-106.944 447.894,-95 483.178,-95 510.079,-106.944"/>
<text text-anchor="middle" x="465.536" y="-115.1" font-family="Bitstream Vera Sans" font-size="8.00">draw:image</text>
</a>
</g>
</g>
<!-- 156&#45;&gt;159 -->
<g id="edge20" class="edge"><title>156&#45;&gt;159</title>
<path fill="none" stroke="black" d="M549.829,-191.956C534.072,-178.131 512.565,-159.261 495.219,-144.043"/>
<polygon fill="black" stroke="black" points="497.403,-141.303 487.578,-137.338 492.786,-146.565 497.403,-141.303"/>
<text text-anchor="middle" x="530.536" y="-160.8" font-family="Times,serif" font-size="14.00">N</text>
</g>
<!-- 157 -->
<g id="node3" class="node"><title>157</title>
<g id="a_node3"><a xlink:href="javascript:nodeClick('draw:object',157)" xlink:title="draw:object">
<polygon fill="palevioletred" stroke="green" points="611.36,-109.544 611.36,-124.456 588.032,-135 555.04,-135 531.712,-124.456 531.712,-109.544 555.04,-99 588.032,-99 611.36,-109.544"/>
<polygon fill="none" stroke="green" points="615.351,-106.96 615.351,-127.04 588.89,-139 554.182,-139 527.721,-127.04 527.721,-106.96 554.182,-95 588.89,-95 615.351,-106.96"/>
<text text-anchor="middle" x="571.536" y="-115.1" font-family="Bitstream Vera Sans" font-size="8.00">draw:object</text>
</a>
</g>
</g>
<!-- 156&#45;&gt;157 -->
<g id="edge21" class="edge"><title>156&#45;&gt;157</title>
<path fill="none" stroke="black" d="M571.536,-189.897C571.536,-177.887 571.536,-162.617 571.536,-149.242"/>
<polygon fill="black" stroke="black" points="575.036,-149.02 571.536,-139.02 568.036,-149.02 575.036,-149.02"/>
<text text-anchor="middle" x="576.536" y="-160.8" font-family="Times,serif" font-size="14.00">N</text>
</g>
<!-- 158 -->
<g id="node25" class="node"><title>158</title>
<g id="a_node25"><a xlink:href="javascript:nodeClick('text:p(null)',158)" xlink:title="text:p(null)">
<polygon fill="pink" stroke="green" points="609.661,-14.5442 609.661,-29.4558 587.328,-40 555.744,-40 533.411,-29.4558 533.411,-14.5442 555.744,-4 587.328,-4 609.661,-14.5442"/>
<polygon fill="none" stroke="green" points="613.668,-12.011 613.668,-31.989 588.227,-44 554.844,-44 529.404,-31.989 529.404,-12.011 554.844,-3.55271e-15 588.227,-0 613.668,-12.011"/>
<text text-anchor="middle" x="571.536" y="-20.1" font-family="Bitstream Vera Sans" font-size="8.00">text:p(null)</text>
</a>
</g>
</g>
<!-- 157&#45;&gt;158 -->
<g id="edge22" class="edge"><title>157&#45;&gt;158</title>
<path fill="none" stroke="black" d="M571.536,-94.8969C571.536,-82.8873 571.536,-67.6175 571.536,-54.242"/>
<polygon fill="black" stroke="black" points="575.036,-54.0196 571.536,-44.0196 568.036,-54.0197 575.036,-54.0196"/>
<text text-anchor="middle" x="576.536" y="-65.8" font-family="Times,serif" font-size="14.00">N</text>
</g>
<!-- 155 -->
<g id="node4" class="node"><title>155</title>
<g id="a_node4"><a xlink:href="javascript:nodeClick('meta:print_date',155)" xlink:title="meta:print_date">
<polygon fill="deepskyblue" stroke="green" points="398.177,-584.544 398.177,-599.456 367.926,-610 325.146,-610 294.895,-599.456 294.895,-584.544 325.146,-574 367.926,-574 398.177,-584.544"/>
<polygon fill="none" stroke="green" points="402.182,-581.704 402.182,-602.296 368.605,-614 324.467,-614 290.89,-602.296 290.89,-581.704 324.467,-570 368.605,-570 402.182,-581.704"/>
<text text-anchor="middle" x="346.536" y="-590.1" font-family="Bitstream Vera Sans" font-size="8.00">meta:print_date</text>
</a>
</g>
</g>
<!-- 142 -->
<g id="node5" class="node"><title>142</title>
<g id="a_node5"><a xlink:href="javascript:nodeClick('number:number_style',142)" xlink:title="number:number_style">
<polygon fill="lightgray" stroke="green" points="139.106,-584.544 139.106,-599.456 99.5243,-610 43.5476,-610 3.96603,-599.456 3.96603,-584.544 43.5476,-574 99.5243,-574 139.106,-584.544"/>
<polygon fill="none" stroke="green" points="143.108,-581.471 143.108,-602.529 100.049,-614 43.0234,-614 -0.035983,-602.529 -0.035983,-581.471 43.0234,-570 100.049,-570 143.108,-581.471"/>
<text text-anchor="middle" x="71.536" y="-590.1" font-family="Bitstream Vera Sans" font-size="8.00">number:number_style</text>
</a>
</g>
</g>
<!-- 143 -->
<g id="node6" class="node"><title>143</title>
<g id="a_node6"><a xlink:href="javascript:nodeClick('number:number',143)" xlink:title="number:number">
<polygon fill="lightgray" stroke="green" points="119.152,-489.544 119.152,-504.456 88.3304,-515 44.7416,-515 13.9196,-504.456 13.9196,-489.544 44.7416,-479 88.3304,-479 119.152,-489.544"/>
<polygon fill="none" stroke="green" points="123.138,-486.682 123.138,-507.318 88.9911,-519 44.0808,-519 9.93358,-507.318 9.93358,-486.682 44.0808,-475 88.9911,-475 123.138,-486.682"/>
<text text-anchor="middle" x="66.536" y="-495.1" font-family="Bitstream Vera Sans" font-size="8.00">number:number</text>
</a>
</g>
</g>
<!-- 142&#45;&gt;143 -->
<g id="edge4" class="edge"><title>142&#45;&gt;143</title>
<path fill="none" stroke="black" d="M70.4014,-569.897C69.7557,-557.887 68.9348,-542.617 68.2156,-529.242"/>
<polygon fill="black" stroke="black" points="71.698,-528.817 67.6661,-519.02 64.7081,-529.193 71.698,-528.817"/>
<text text-anchor="middle" x="74.536" y="-540.8" font-family="Times,serif" font-size="14.00">N</text>
</g>
<!-- 2 -->
<g id="node7" class="node"><title>2</title>
<g id="a_node7"><a xlink:href="javascript:nodeClick('office:document_content',2)" xlink:title="office:document_content">
<path fill="lightblue" stroke="black" d="M164.036,-753.5C164.036,-753.5 261.036,-753.5 261.036,-753.5 267.036,-753.5 273.036,-759.5 273.036,-765.5 273.036,-765.5 273.036,-777.5 273.036,-777.5 273.036,-783.5 267.036,-789.5 261.036,-789.5 261.036,-789.5 164.036,-789.5 164.036,-789.5 158.036,-789.5 152.036,-783.5 152.036,-777.5 152.036,-777.5 152.036,-765.5 152.036,-765.5 152.036,-759.5 158.036,-753.5 164.036,-753.5"/>
<text text-anchor="middle" x="212.536" y="-769.6" font-family="Bitstream Vera Sans" font-size="8.00">office:document_content</text>
</a>
</g>
</g>
<!-- 6 -->
<g id="node8" class="node"><title>6</title>
<g id="a_node8"><a xlink:href="javascript:nodeClick('office:automatic_styles',6)" xlink:title="office:automatic_styles">
<path fill="lightblue" stroke="black" d="M42.036,-665.5C42.036,-665.5 133.036,-665.5 133.036,-665.5 139.036,-665.5 145.036,-671.5 145.036,-677.5 145.036,-677.5 145.036,-689.5 145.036,-689.5 145.036,-695.5 139.036,-701.5 133.036,-701.5 133.036,-701.5 42.036,-701.5 42.036,-701.5 36.036,-701.5 30.036,-695.5 30.036,-689.5 30.036,-689.5 30.036,-677.5 30.036,-677.5 30.036,-671.5 36.036,-665.5 42.036,-665.5"/>
<text text-anchor="middle" x="87.536" y="-681.6" font-family="Bitstream Vera Sans" font-size="8.00">office:automatic_styles</text>
</a>
</g>
</g>
<!-- 2&#45;&gt;6 -->
<g id="edge2" class="edge"><title>2&#45;&gt;6</title>
<path fill="none" stroke="black" d="M187.541,-753.303C168.379,-740.12 141.755,-721.802 120.794,-707.382"/>
<polygon fill="black" stroke="black" points="122.71,-704.452 112.488,-701.667 118.742,-710.218 122.71,-704.452"/>
<text text-anchor="middle" x="162.536" y="-723.8" font-family="Times,serif" font-size="14.00">C</text>
</g>
<!-- 11 -->
<g id="node9" class="node"><title>11</title>
<g id="a_node9"><a xlink:href="javascript:nodeClick('office:body',11)" xlink:title="office:body">
<path fill="lightblue" stroke="black" d="M197.036,-665.5C197.036,-665.5 236.036,-665.5 236.036,-665.5 242.036,-665.5 248.036,-671.5 248.036,-677.5 248.036,-677.5 248.036,-689.5 248.036,-689.5 248.036,-695.5 242.036,-701.5 236.036,-701.5 236.036,-701.5 197.036,-701.5 197.036,-701.5 191.036,-701.5 185.036,-695.5 185.036,-689.5 185.036,-689.5 185.036,-677.5 185.036,-677.5 185.036,-671.5 191.036,-665.5 197.036,-665.5"/>
<text text-anchor="middle" x="216.536" y="-681.6" font-family="Bitstream Vera Sans" font-size="8.00">office:body</text>
</a>
</g>
</g>
<!-- 2&#45;&gt;11 -->
<g id="edge5" class="edge"><title>2&#45;&gt;11</title>
<path fill="none" stroke="black" d="M213.345,-753.097C213.897,-741.246 214.638,-725.317 215.267,-711.792"/>
<polygon fill="black" stroke="black" points="218.773,-711.736 215.741,-701.584 211.78,-711.411 218.773,-711.736"/>
<text text-anchor="middle" x="220.536" y="-723.8" font-family="Times,serif" font-size="14.00">C</text>
</g>
<!-- 6&#45;&gt;142 -->
<g id="edge3" class="edge"><title>6&#45;&gt;142</title>
<path fill="none" stroke="black" d="M84.451,-665.243C82.3814,-653.667 79.5953,-638.082 77.1406,-624.351"/>
<polygon fill="black" stroke="black" points="80.5508,-623.538 75.3455,-614.31 73.66,-624.769 80.5508,-623.538"/>
<text text-anchor="middle" x="86.536" y="-635.8" font-family="Times,serif" font-size="14.00">N</text>
</g>
<!-- 12 -->
<g id="node10" class="node"><title>12</title>
<g id="a_node10"><a xlink:href="javascript:nodeClick('office:spreadsheet',12)" xlink:title="office:spreadsheet">
<path fill="lightblue" stroke="black" d="M187.036,-574C187.036,-574 260.036,-574 260.036,-574 266.036,-574 272.036,-580 272.036,-586 272.036,-586 272.036,-598 272.036,-598 272.036,-604 266.036,-610 260.036,-610 260.036,-610 187.036,-610 187.036,-610 181.036,-610 175.036,-604 175.036,-598 175.036,-598 175.036,-586 175.036,-586 175.036,-580 181.036,-574 187.036,-574"/>
<text text-anchor="middle" x="223.536" y="-590.1" font-family="Bitstream Vera Sans" font-size="8.00">office:spreadsheet</text>
</a>
</g>
</g>
<!-- 11&#45;&gt;12 -->
<g id="edge6" class="edge"><title>11&#45;&gt;12</title>
<path fill="none" stroke="black" d="M217.886,-665.243C218.883,-652.49 220.261,-634.874 221.406,-620.229"/>
<polygon fill="black" stroke="black" points="224.9,-620.446 222.19,-610.204 217.921,-619.9 224.9,-620.446"/>
<text text-anchor="middle" x="225.536" y="-635.8" font-family="Times,serif" font-size="14.00">C</text>
</g>
<!-- 154 -->
<g id="node13" class="node"><title>154</title>
<g id="a_node13"><a xlink:href="javascript:nodeClick('table:named_expressions',154)" xlink:title="table:named_expressions">
<polygon fill="beige" stroke="green" points="301.484,-489.544 301.484,-504.456 255.823,-515 191.249,-515 145.588,-504.456 145.588,-489.544 191.249,-479 255.823,-479 301.484,-489.544"/>
<polygon fill="none" stroke="green" points="305.483,-486.362 305.483,-507.638 256.279,-519 190.793,-519 141.589,-507.638 141.589,-486.362 190.793,-475 256.279,-475 305.483,-486.362"/>
<text text-anchor="middle" x="223.536" y="-495.1" font-family="Bitstream Vera Sans" font-size="8.00">table:named_expressions</text>
</a>
</g>
</g>
<!-- 12&#45;&gt;154 -->
<g id="edge7" class="edge"><title>12&#45;&gt;154</title>
<path fill="none" stroke="black" d="M223.536,-573.942C223.536,-561.537 223.536,-544.381 223.536,-529.514"/>
<polygon fill="black" stroke="black" points="227.036,-529.194 223.536,-519.194 220.036,-529.194 227.036,-529.194"/>
<text text-anchor="middle" x="228.536" y="-540.8" font-family="Times,serif" font-size="14.00">N</text>
</g>
<!-- 16 -->
<g id="node14" class="node"><title>16</title>
<g id="a_node14"><a xlink:href="javascript:nodeClick('table:table',16)" xlink:title="table:table">
<path fill="beige" stroke="black" d="M335.536,-479C335.536,-479 373.536,-479 373.536,-479 379.536,-479 385.536,-485 385.536,-491 385.536,-491 385.536,-503 385.536,-503 385.536,-509 379.536,-515 373.536,-515 373.536,-515 335.536,-515 335.536,-515 329.536,-515 323.536,-509 323.536,-503 323.536,-503 323.536,-491 323.536,-491 323.536,-485 329.536,-479 335.536,-479"/>
<text text-anchor="middle" x="354.536" y="-495.1" font-family="Bitstream Vera Sans" font-size="8.00">table:table</text>
</a>
</g>
</g>
<!-- 12&#45;&gt;16 -->
<g id="edge8" class="edge"><title>12&#45;&gt;16</title>
<path fill="none" stroke="black" d="M247.563,-573.942C268.391,-559.156 298.724,-537.622 321.774,-521.258"/>
<polygon fill="black" stroke="black" points="324.089,-523.907 330.217,-515.264 320.037,-518.199 324.089,-523.907"/>
<text text-anchor="middle" x="302.536" y="-540.8" font-family="Times,serif" font-size="14.00">C</text>
</g>
<!-- 69 -->
<g id="node11" class="node"><title>69</title>
<g id="a_node11"><a xlink:href="javascript:nodeClick('office:document_meta',69)" xlink:title="office:document_meta">
<path fill="lightblue" stroke="black" d="M303.036,-753.5C303.036,-753.5 390.036,-753.5 390.036,-753.5 396.036,-753.5 402.036,-759.5 402.036,-765.5 402.036,-765.5 402.036,-777.5 402.036,-777.5 402.036,-783.5 396.036,-789.5 390.036,-789.5 390.036,-789.5 303.036,-789.5 303.036,-789.5 297.036,-789.5 291.036,-783.5 291.036,-777.5 291.036,-777.5 291.036,-765.5 291.036,-765.5 291.036,-759.5 297.036,-753.5 303.036,-753.5"/>
<text text-anchor="middle" x="346.536" y="-769.6" font-family="Bitstream Vera Sans" font-size="8.00">office:document_meta</text>
</a>
</g>
</g>
<!-- 70 -->
<g id="node12" class="node"><title>70</title>
<g id="a_node12"><a xlink:href="javascript:nodeClick('office:meta',70)" xlink:title="office:meta">
<path fill="lightblue" stroke="black" d="M326.036,-665.5C326.036,-665.5 367.036,-665.5 367.036,-665.5 373.036,-665.5 379.036,-671.5 379.036,-677.5 379.036,-677.5 379.036,-689.5 379.036,-689.5 379.036,-695.5 373.036,-701.5 367.036,-701.5 367.036,-701.5 326.036,-701.5 326.036,-701.5 320.036,-701.5 314.036,-695.5 314.036,-689.5 314.036,-689.5 314.036,-677.5 314.036,-677.5 314.036,-671.5 320.036,-665.5 326.036,-665.5"/>
<text text-anchor="middle" x="346.536" y="-681.6" font-family="Bitstream Vera Sans" font-size="8.00">office:meta</text>
</a>
</g>
</g>
<!-- 69&#45;&gt;70 -->
<g id="edge27" class="edge"><title>69&#45;&gt;70</title>
<path fill="none" stroke="black" d="M346.536,-753.097C346.536,-741.246 346.536,-725.317 346.536,-711.792"/>
<polygon fill="black" stroke="black" points="350.036,-711.584 346.536,-701.584 343.036,-711.584 350.036,-711.584"/>
<text text-anchor="middle" x="351.536" y="-723.8" font-family="Times,serif" font-size="14.00">C</text>
</g>
<!-- 70&#45;&gt;155 -->
<g id="edge28" class="edge"><title>70&#45;&gt;155</title>
<path fill="none" stroke="black" d="M346.536,-665.243C346.536,-653.667 346.536,-638.082 346.536,-624.351"/>
<polygon fill="black" stroke="black" points="350.036,-624.31 346.536,-614.31 343.036,-624.31 350.036,-624.31"/>
<text text-anchor="middle" x="351.536" y="-635.8" font-family="Times,serif" font-size="14.00">N</text>
</g>
<!-- 147 -->
<g id="node15" class="node"><title>147</title>
<g id="a_node15"><a xlink:href="javascript:nodeClick('table:named_expressions',147)" xlink:title="table:named_expressions">
<polygon fill="beige" stroke="green" points="253.484,-394.544 253.484,-409.456 207.823,-420 143.249,-420 97.588,-409.456 97.588,-394.544 143.249,-384 207.823,-384 253.484,-394.544"/>
<polygon fill="none" stroke="green" points="257.483,-391.362 257.483,-412.638 208.279,-424 142.793,-424 93.5893,-412.638 93.5893,-391.362 142.793,-380 208.279,-380 257.483,-391.362"/>
<text text-anchor="middle" x="175.536" y="-400.1" font-family="Bitstream Vera Sans" font-size="8.00">table:named_expressions</text>
</a>
</g>
</g>
<!-- 16&#45;&gt;147 -->
<g id="edge9" class="edge"><title>16&#45;&gt;147</title>
<path fill="none" stroke="black" d="M323.536,-479.703C320.496,-478.112 317.457,-476.523 314.536,-475 284.142,-459.15 249.956,-441.441 223.093,-427.552"/>
<polygon fill="black" stroke="black" points="224.405,-424.29 213.915,-422.808 221.191,-430.509 224.405,-424.29"/>
<text text-anchor="middle" x="281.536" y="-445.8" font-family="Times,serif" font-size="14.00">N</text>
</g>
<!-- 149 -->
<g id="node17" class="node"><title>149</title>
<g id="a_node17"><a xlink:href="javascript:nodeClick('table:table_header_rows',149)" xlink:title="table:table_header_rows">
<polygon fill="beige" stroke="green" points="429.348,-394.544 429.348,-409.456 385.524,-420 323.548,-420 279.724,-409.456 279.724,-394.544 323.548,-384 385.524,-384 429.348,-394.544"/>
<polygon fill="none" stroke="green" points="433.343,-391.392 433.343,-412.608 385.997,-424 323.075,-424 275.729,-412.608 275.729,-391.392 323.075,-380 385.997,-380 433.343,-391.392"/>
<text text-anchor="middle" x="354.536" y="-400.1" font-family="Bitstream Vera Sans" font-size="8.00">table:table_header_rows</text>
</a>
</g>
</g>
<!-- 16&#45;&gt;149 -->
<g id="edge11" class="edge"><title>16&#45;&gt;149</title>
<path fill="none" stroke="black" d="M354.536,-478.942C354.536,-466.537 354.536,-449.381 354.536,-434.514"/>
<polygon fill="black" stroke="black" points="358.036,-434.194 354.536,-424.194 351.036,-434.194 358.036,-434.194"/>
<text text-anchor="middle" x="359.536" y="-445.8" font-family="Times,serif" font-size="14.00">N</text>
</g>
<!-- 18 -->
<g id="node20" class="node"><title>18</title>
<g id="a_node20"><a xlink:href="javascript:nodeClick('table:table_row',18)" xlink:title="table:table_row">
<path fill="beige" stroke="black" d="M468.536,-384C468.536,-384 526.536,-384 526.536,-384 532.536,-384 538.536,-390 538.536,-396 538.536,-396 538.536,-408 538.536,-408 538.536,-414 532.536,-420 526.536,-420 526.536,-420 468.536,-420 468.536,-420 462.536,-420 456.536,-414 456.536,-408 456.536,-408 456.536,-396 456.536,-396 456.536,-390 462.536,-384 468.536,-384"/>
<text text-anchor="middle" x="497.536" y="-400.1" font-family="Bitstream Vera Sans" font-size="8.00">table:table_row</text>
</a>
</g>
</g>
<!-- 16&#45;&gt;18 -->
<g id="edge16" class="edge"><title>16&#45;&gt;18</title>
<path fill="none" stroke="black" d="M380.764,-478.942C403.701,-464.026 437.195,-442.242 462.437,-425.827"/>
<polygon fill="black" stroke="black" points="464.515,-428.651 470.99,-420.264 460.698,-422.782 464.515,-428.651"/>
<text text-anchor="middle" x="440.536" y="-445.8" font-family="Times,serif" font-size="14.00">C</text>
</g>
<!-- 148 -->
<g id="node16" class="node"><title>148</title>
<g id="a_node16"><a xlink:href="javascript:nodeClick('table:named_range',148)" xlink:title="table:named_range">
<polygon fill="beige" stroke="green" points="236.115,-299.544 236.115,-314.456 200.629,-325 150.443,-325 114.957,-314.456 114.957,-299.544 150.443,-289 200.629,-289 236.115,-299.544"/>
<polygon fill="none" stroke="green" points="240.101,-296.557 240.101,-317.443 201.206,-329 149.865,-329 110.97,-317.443 110.97,-296.557 149.865,-285 201.206,-285 240.101,-296.557"/>
<text text-anchor="middle" x="175.536" y="-305.1" font-family="Bitstream Vera Sans" font-size="8.00">table:named_range</text>
</a>
</g>
</g>
<!-- 147&#45;&gt;148 -->
<g id="edge10" class="edge"><title>147&#45;&gt;148</title>
<path fill="none" stroke="black" d="M175.536,-379.897C175.536,-367.887 175.536,-352.617 175.536,-339.242"/>
<polygon fill="black" stroke="black" points="179.036,-339.02 175.536,-329.02 172.036,-339.02 179.036,-339.02"/>
<text text-anchor="middle" x="180.536" y="-350.8" font-family="Times,serif" font-size="14.00">N</text>
</g>
<!-- 150 -->
<g id="node18" class="node"><title>150</title>
<g id="a_node18"><a xlink:href="javascript:nodeClick('table:table_row',150)" xlink:title="table:table_row">
<polygon fill="beige" stroke="green" points="398.738,-299.544 398.738,-314.456 369.33,-325 327.742,-325 298.334,-314.456 298.334,-299.544 327.742,-289 369.33,-289 398.738,-299.544"/>
<polygon fill="none" stroke="green" points="402.726,-296.726 402.726,-317.274 370.022,-329 327.05,-329 294.346,-317.274 294.346,-296.726 327.05,-285 370.022,-285 402.726,-296.726"/>
<text text-anchor="middle" x="348.536" y="-305.1" font-family="Bitstream Vera Sans" font-size="8.00">table:table_row</text>
</a>
</g>
</g>
<!-- 149&#45;&gt;150 -->
<g id="edge12" class="edge"><title>149&#45;&gt;150</title>
<path fill="none" stroke="black" d="M353.174,-379.897C352.4,-367.887 351.415,-352.617 350.552,-339.242"/>
<polygon fill="black" stroke="black" points="354.029,-338.774 349.892,-329.02 347.043,-339.224 354.029,-338.774"/>
<text text-anchor="middle" x="357.536" y="-350.8" font-family="Times,serif" font-size="14.00">N</text>
</g>
<!-- 151 -->
<g id="node19" class="node"><title>151</title>
<g id="a_node19"><a xlink:href="javascript:nodeClick('table:table_cell',151)" xlink:title="table:table_cell">
<polygon fill="beige" stroke="green" points="397.762,-204.544 397.762,-219.456 368.926,-230 328.146,-230 299.31,-219.456 299.31,-204.544 328.146,-194 368.926,-194 397.762,-204.544"/>
<polygon fill="none" stroke="green" points="401.77,-201.75 401.77,-222.25 369.637,-234 327.435,-234 295.302,-222.25 295.302,-201.75 327.435,-190 369.637,-190 401.77,-201.75"/>
<text text-anchor="middle" x="348.536" y="-210.1" font-family="Bitstream Vera Sans" font-size="8.00">table:table_cell</text>
</a>
</g>
</g>
<!-- 150&#45;&gt;151 -->
<g id="edge13" class="edge"><title>150&#45;&gt;151</title>
<path fill="none" stroke="black" d="M348.536,-284.897C348.536,-272.887 348.536,-257.617 348.536,-244.242"/>
<polygon fill="black" stroke="black" points="352.036,-244.02 348.536,-234.02 345.036,-244.02 352.036,-244.02"/>
<text text-anchor="middle" x="353.536" y="-255.8" font-family="Times,serif" font-size="14.00">N</text>
</g>
<!-- 152 -->
<g id="node23" class="node"><title>152</title>
<g id="a_node23"><a xlink:href="javascript:nodeClick('text:p(null)',152)" xlink:title="text:p(null)">
<polygon fill="pink" stroke="green" points="386.661,-109.544 386.661,-124.456 364.328,-135 332.744,-135 310.411,-124.456 310.411,-109.544 332.744,-99 364.328,-99 386.661,-109.544"/>
<polygon fill="none" stroke="green" points="390.668,-107.011 390.668,-126.989 365.227,-139 331.844,-139 306.404,-126.989 306.404,-107.011 331.844,-95 365.227,-95 390.668,-107.011"/>
<text text-anchor="middle" x="348.536" y="-115.1" font-family="Bitstream Vera Sans" font-size="8.00">text:p(null)</text>
</a>
</g>
</g>
<!-- 151&#45;&gt;152 -->
<g id="edge14" class="edge"><title>151&#45;&gt;152</title>
<path fill="none" stroke="black" d="M348.536,-189.897C348.536,-177.887 348.536,-162.617 348.536,-149.242"/>
<polygon fill="black" stroke="black" points="352.036,-149.02 348.536,-139.02 345.036,-149.02 352.036,-149.02"/>
<text text-anchor="middle" x="353.536" y="-160.8" font-family="Times,serif" font-size="14.00">N</text>
</g>
<!-- 146 -->
<g id="node21" class="node"><title>146</title>
<g id="a_node21"><a xlink:href="javascript:nodeClick('table:covered_table_cell',146)" xlink:title="table:covered_table_cell">
<polygon fill="beige" stroke="green" points="570.656,-299.544 570.656,-314.456 527.823,-325 467.249,-325 424.416,-314.456 424.416,-299.544 467.249,-289 527.823,-289 570.656,-299.544"/>
<polygon fill="none" stroke="green" points="574.659,-296.41 574.659,-317.59 528.309,-329 466.763,-329 420.413,-317.59 420.413,-296.41 466.763,-285 528.309,-285 574.659,-296.41"/>
<text text-anchor="middle" x="497.536" y="-305.1" font-family="Bitstream Vera Sans" font-size="8.00">table:covered_table_cell</text>
</a>
</g>
</g>
<!-- 18&#45;&gt;146 -->
<g id="edge17" class="edge"><title>18&#45;&gt;146</title>
<path fill="none" stroke="black" d="M497.536,-383.942C497.536,-371.537 497.536,-354.381 497.536,-339.514"/>
<polygon fill="black" stroke="black" points="501.036,-339.194 497.536,-329.194 494.036,-339.194 501.036,-339.194"/>
<text text-anchor="middle" x="502.536" y="-350.8" font-family="Times,serif" font-size="14.00">N</text>
</g>
<!-- 19 -->
<g id="node22" class="node"><title>19</title>
<g id="a_node22"><a xlink:href="javascript:nodeClick('table:table_cell',19)" xlink:title="table:table_cell">
<path fill="beige" stroke="black" d="M604.536,-289C604.536,-289 660.536,-289 660.536,-289 666.536,-289 672.536,-295 672.536,-301 672.536,-301 672.536,-313 672.536,-313 672.536,-319 666.536,-325 660.536,-325 660.536,-325 604.536,-325 604.536,-325 598.536,-325 592.536,-319 592.536,-313 592.536,-313 592.536,-301 592.536,-301 592.536,-295 598.536,-289 604.536,-289"/>
<text text-anchor="middle" x="632.536" y="-305.1" font-family="Bitstream Vera Sans" font-size="8.00">table:table_cell</text>
</a>
</g>
</g>
<!-- 18&#45;&gt;19 -->
<g id="edge18" class="edge"><title>18&#45;&gt;19</title>
<path fill="none" stroke="black" d="M522.297,-383.942C543.856,-369.091 575.295,-347.433 599.088,-331.042"/>
<polygon fill="black" stroke="black" points="601.225,-333.82 607.475,-325.264 597.254,-328.055 601.225,-333.82"/>
<text text-anchor="middle" x="601.036" y="-350.8" font-family="Times,serif" font-size="14.00"> C: 43994</text>
</g>
<!-- 19&#45;&gt;156 -->
<g id="edge19" class="edge"><title>19&#45;&gt;156</title>
<path fill="none" stroke="black" d="M621.348,-288.942C612.895,-276.055 601.079,-258.042 591.078,-242.793"/>
<polygon fill="black" stroke="black" points="593.849,-240.636 585.437,-234.194 587.995,-244.475 593.849,-240.636"/>
<text text-anchor="middle" x="611.536" y="-255.8" font-family="Times,serif" font-size="14.00">N</text>
</g>
<!-- 20 -->
<g id="node26" class="node"><title>20</title>
<g id="a_node26"><a xlink:href="javascript:nodeClick('text:p(null)',20)" xlink:title="text:p(null)">
<path fill="pink" stroke="black" d="M645.536,-194C645.536,-194 683.536,-194 683.536,-194 689.536,-194 695.536,-200 695.536,-206 695.536,-206 695.536,-218 695.536,-218 695.536,-224 689.536,-230 683.536,-230 683.536,-230 645.536,-230 645.536,-230 639.536,-230 633.536,-224 633.536,-218 633.536,-218 633.536,-206 633.536,-206 633.536,-200 639.536,-194 645.536,-194"/>
<text text-anchor="middle" x="664.536" y="-210.1" font-family="Bitstream Vera Sans" font-size="8.00">text:p(null)</text>
</a>
</g>
</g>
<!-- 19&#45;&gt;20 -->
<g id="edge23" class="edge"><title>19&#45;&gt;20</title>
<path fill="none" stroke="black" d="M638.405,-288.942C643.112,-275.263 649.806,-255.81 655.24,-240.017"/>
<polygon fill="black" stroke="black" points="658.651,-240.859 658.596,-230.264 652.032,-238.582 658.651,-240.859"/>
<text text-anchor="middle" x="678.036" y="-255.8" font-family="Times,serif" font-size="14.00"> C: 93390</text>
</g>
<!-- 153 -->
<g id="node24" class="node"><title>153</title>
<g id="a_node24"><a xlink:href="javascript:nodeClick('text:s',153)" xlink:title="text:s">
<polygon fill="pink" stroke="green" points="375.536,-14.5442 375.536,-29.4558 359.72,-40 337.352,-40 321.536,-29.4558 321.536,-14.5442 337.352,-4 359.72,-4 375.536,-14.5442"/>
<polygon fill="none" stroke="green" points="379.536,-12.4034 379.536,-31.5966 360.931,-44 336.141,-44 317.536,-31.5966 317.536,-12.4034 336.141,-3.55271e-15 360.931,-0 379.536,-12.4034"/>
<text text-anchor="middle" x="348.536" y="-20.1" font-family="Bitstream Vera Sans" font-size="8.00">text:s</text>
</a>
</g>
</g>
<!-- 152&#45;&gt;153 -->
<g id="edge15" class="edge"><title>152&#45;&gt;153</title>
<path fill="none" stroke="black" d="M348.536,-94.8969C348.536,-82.8873 348.536,-67.6175 348.536,-54.242"/>
<polygon fill="black" stroke="black" points="352.036,-54.0196 348.536,-44.0196 345.036,-54.0197 352.036,-54.0196"/>
<text text-anchor="middle" x="353.536" y="-65.8" font-family="Times,serif" font-size="14.00">N</text>
</g>
<!-- 144 -->
<g id="node27" class="node"><title>144</title>
<g id="a_node27"><a xlink:href="javascript:nodeClick('text:s',144)" xlink:title="text:s">
<polygon fill="pink" stroke="green" points="691.536,-109.544 691.536,-124.456 675.72,-135 653.352,-135 637.536,-124.456 637.536,-109.544 653.352,-99 675.72,-99 691.536,-109.544"/>
<polygon fill="none" stroke="green" points="695.536,-107.403 695.536,-126.597 676.931,-139 652.141,-139 633.536,-126.597 633.536,-107.403 652.141,-95 676.931,-95 695.536,-107.403"/>
<text text-anchor="middle" x="664.536" y="-115.1" font-family="Bitstream Vera Sans" font-size="8.00">text:s</text>
</a>
</g>
</g>
<!-- 20&#45;&gt;144 -->
<g id="edge24" class="edge"><title>20&#45;&gt;144</title>
<path fill="none" stroke="black" d="M664.536,-193.942C664.536,-181.537 664.536,-164.381 664.536,-149.514"/>
<polygon fill="black" stroke="black" points="668.036,-149.194 664.536,-139.194 661.036,-149.194 668.036,-149.194"/>
<text text-anchor="middle" x="669.536" y="-160.8" font-family="Times,serif" font-size="14.00">N</text>
</g>
<!-- 145 -->
<g id="node28" class="node"><title>145</title>
<g id="a_node28"><a xlink:href="javascript:nodeClick('text:span(null)',145)" xlink:title="text:span(null)">
<polygon fill="pink" stroke="green" points="811.605,-109.544 811.605,-124.456 784.032,-135 745.039,-135 717.467,-124.456 717.467,-109.544 745.039,-99 784.032,-99 811.605,-109.544"/>
<polygon fill="none" stroke="green" points="815.587,-106.787 815.587,-127.213 784.765,-139 744.307,-139 713.485,-127.213 713.485,-106.787 744.307,-95 784.765,-95 815.587,-106.787"/>
<text text-anchor="middle" x="764.536" y="-115.1" font-family="Bitstream Vera Sans" font-size="8.00">text:span(null)</text>
</a>
</g>
</g>
<!-- 20&#45;&gt;145 -->
<g id="edge25" class="edge"><title>20&#45;&gt;145</title>
<path fill="none" stroke="black" d="M682.878,-193.942C697.449,-180.391 718.113,-161.173 735.009,-145.46"/>
<polygon fill="black" stroke="black" points="737.531,-147.894 742.471,-138.521 732.764,-142.768 737.531,-147.894"/>
<text text-anchor="middle" x="725.536" y="-160.8" font-family="Times,serif" font-size="14.00">N</text>
</g>
<!-- title -->
<g id="node29" class="node"><title>title</title>
<g id="a_node29"><a xlink:href="javascript:nodeClick('Previous Run(s)',title)" xlink:title="Previous Run(s)">
<path fill="white" stroke="black" d="M262.036,-841.5C262.036,-841.5 321.036,-841.5 321.036,-841.5 327.036,-841.5 333.036,-847.5 333.036,-853.5 333.036,-853.5 333.036,-865.5 333.036,-865.5 333.036,-871.5 327.036,-877.5 321.036,-877.5 321.036,-877.5 262.036,-877.5 262.036,-877.5 256.036,-877.5 250.036,-871.5 250.036,-865.5 250.036,-865.5 250.036,-853.5 250.036,-853.5 250.036,-847.5 256.036,-841.5 262.036,-841.5"/>
<text text-anchor="middle" x="291.536" y="-857.6" font-family="Bitstream Vera Sans" font-size="8.00">Previous Run(s)</text>
</a>
</g>
</g>
<!-- title&#45;&gt;2 -->
<g id="edge1" class="edge"><title>title&#45;&gt;2</title>
<path fill="none" stroke="black" d="M275.549,-841.097C263.908,-828.425 247.984,-811.089 235.057,-797.016"/>
<polygon fill="black" stroke="black" points="237.572,-794.581 228.229,-789.584 232.417,-799.316 237.572,-794.581"/>
<text text-anchor="middle" x="262.536" y="-811.8" font-family="Times,serif" font-size="14.00">C</text>
</g>
<!-- title&#45;&gt;69 -->
<g id="edge26" class="edge"><title>title&#45;&gt;69</title>
<path fill="none" stroke="black" d="M302.666,-841.097C310.545,-828.777 321.243,-812.049 330.102,-798.196"/>
<polygon fill="black" stroke="black" points="333.171,-799.894 335.61,-789.584 327.274,-796.123 333.171,-799.894"/>
<text text-anchor="middle" x="327.536" y="-811.8" font-family="Times,serif" font-size="14.00">C</text>
</g>
</g>
</svg>
